<?xml version="1.0" encoding="UTF-8"?>
<svg width="45px" height="49px" viewBox="0 0 45 49" version="1.1" xmlns="http://www.w3.org/2000/svg" xmlns:xlink="http://www.w3.org/1999/xlink">
    <!-- Generator: Sketch 52.2 (67145) - http://www.bohemiancoding.com/sketch -->
    <title>Group 3</title>
    <desc>Created with Sketch.</desc>
    <g id="Welcome" stroke="none" stroke-width="1" fill="none" fill-rule="evenodd">
        <g id="Desktop-Copy-4" transform="translate(-129.000000, -40.000000)">
            <g id="Group-3" transform="translate(129.000000, 40.000000)">
                <polygon id="Fill-1" fill="#FFFFFF" points="2.95045 41.82405 0.40095 41.82405 0.40095 39.76005 7.85595 39.76005 7.85595 41.82405 5.30595 41.82405 5.30595 48.25905 2.95045 48.25905"></polygon>
                <polygon id="Fill-2" fill="#FFFFFF" points="12.53025 39.7601 19.36625 39.7601 19.36625 41.7636 14.86125 41.7636 14.86125 43.0506 18.94125 43.0506 18.94125 44.9081 14.86125 44.9081 14.86125 46.2556 19.42675 46.2556 19.42675 48.2591 12.53025 48.2591"></polygon>
                <path d="M23.98045,44.0096 C23.98045,41.5326 25.88695,39.5901 28.46095,39.5901 C30.19745,39.5901 31.27795,40.3431 32.03095,41.3871 L30.30595,42.7226 C29.82095,42.1156 29.24995,41.7391 28.43645,41.7391 C27.24645,41.7391 26.40845,42.7466 26.40845,44.0096 C26.40845,45.2846 27.24645,46.2801 28.43645,46.2801 C29.32295,46.2801 29.84495,45.8671 30.35445,45.2481 L32.12745,46.5106 C31.32595,47.6156 30.24545,48.4291 28.36395,48.4291 C25.93545,48.4291 23.98045,46.5711 23.98045,44.0096" id="Fill-3" fill="#FFFFFF"></path>
                <polygon id="Fill-5" fill="#FFFFFF" points="36.7783 39.7601 39.1338 39.7601 39.1338 42.9411 42.1568 42.9411 42.1568 39.7601 44.5128 39.7601 44.5128 48.2591 42.1568 48.2591 42.1568 45.0291 39.1338 45.0291 39.1338 48.2591 36.7783 48.2591"></polygon>
                <polygon id="Fill-7" fill="#01D9D4" points="0.0991 33.5843 21.3346 33.5843 24.5266 25.2108 8.4726 25.2108 8.4726 0.4373 0.0991 0.4373"></polygon>
                <polygon id="Fill-9" fill="#01D9D4" points="34.10645 9.9947 37.76045 0.4832 37.71395 0.4372 13.40295 0.4372 13.40295 8.8107 25.47945 8.8107 21.75595 18.3682 36.13895 18.3682 36.13895 25.2107 29.47195 25.2107 26.31995 33.5842 44.51245 33.5842 44.51245 9.9947"></polygon>
            </g>
        </g>
    </g>
</svg>